<?xml version="1.0" encoding="UTF-8"?>
<svg id="Layer_1" data-name="Layer 1" xmlns="http://www.w3.org/2000/svg" viewBox="0 0 135.99 42.86">
  <defs>
    <style>
      .cls-1 {
        fill: #ff3bca;
        stroke-width: 0px;
      }
    </style>
  </defs>
  <path class="cls-1" d="M79.16,30.93v2.1c-2.76,1.81-5.1,3.27-7.03,4.38-1.93,1.11-3.85,2.1-5.77,2.99-1.92.88-3.5,1.52-4.77,1.89-1.26.38-2.34.56-3.24.56-2.15,0-3.9-.56-5.27-1.68-1.36-1.12-2.05-2.56-2.05-4.33,0-2.03.59-4.05,1.76-6.04,1.17-1.99,2.85-4.05,5.03-6.18,2.18-2.12,4.9-4.51,8.18-7.15,2.44-1.95,3.66-3.05,3.66-3.29,0-.14-.07-.26-.22-.37-.15-.1-.3-.15-.48-.15-.55,0-2.25.85-5.09,2.56-2.84,1.71-6.49,4.22-10.94,7.53-4.45,3.31-9.26,7.26-14.43,11.84-.29.24-1.21,1.07-2.76,2.49-1.55,1.41-2.65,2.33-3.29,2.76-.64.43-1.19.64-1.65.64-.81,0-1.52-.57-2.11-1.72-.6-1.15-.89-2.37-.89-3.68,0-.79.37-1.65,1.11-2.56s2.35-2.56,4.83-4.93c2.48-2.37,4.53-4.37,6.16-5.99,1.62-1.63,3.41-3.6,5.35-5.92,1.36-1.61,2.37-2.89,3.02-3.84.65-.96.98-1.8.98-2.53,0-.63-.26-.95-.78-.95-1.1,0-3.18,1.03-6.22,3.1-3.05,2.06-6.81,5.13-11.29,9.2-4.48,4.07-9.16,8.78-14.03,14.12-1.6,1.83-2.73,3.06-3.39,3.69-.67.63-1.41.95-2.22.95-1.02,0-1.97-.76-2.85-2.27-.89-1.51-1.33-2.74-1.33-3.68,0-.31.17-.64.52-1.01,3.83-3.58,6.98-6.62,9.44-9.12,2.47-2.5,4.66-4.88,6.57-7.12,1.91-2.25,3.31-4.1,4.18-5.55.87-1.45,1.31-2.6,1.31-3.43s-.57-1.31-1.7-1.31c-.93,0-2.51.42-4.74,1.25-2.23.83-5.06,1.97-8.46,3.42-3.41,1.44-6.14,2.55-8.2,3.31-2.06.76-3.6,1.14-4.61,1.14-.96,0-1.44-.38-1.44-1.13,0-.43.2-1.41.61-2.94.41-1.54.83-2.62,1.26-3.25.61-.81,2.17-1.89,4.68-3.23,2.51-1.34,3.89-2.01,4.16-2.01.23,0,.35.07.35.21,0,.08-.12.2-.35.37-1.19.67-2.07,1.22-2.65,1.65-.58.43-.94.9-1.09,1.4,5.31-2.24,10.06-3.94,14.25-5.11C25.41.83,28.31.24,29.94.24c.81,0,1.58.38,2.31,1.14.72.76,1.34,1.65,1.85,2.65.51,1.01.76,1.65.76,1.94,0,1.04-.38,2.26-1.13,3.68-.75,1.41-1.78,3.06-3.07,4.93-1.29,1.87-2.89,4.21-4.81,7.02,1.51-1.36,2.94-2.62,4.31-3.78,1.36-1.16,2.72-2.29,4.07-3.39s2.72-2.21,4.11-3.33c1.89-1.53,4-2.98,6.35-4.38,2.35-1.39,4.55-2.53,6.59-3.42,2.05-.88,3.43-1.33,4.16-1.33,1.02,0,1.92.39,2.72,1.17.8.78,1.2,1.62,1.2,2.52,0,.59-.55,1.72-1.65,3.39-1.1,1.67-2.71,3.8-4.83,6.41-2.12,2.6-4.92,5.96-8.4,10.07,3.31-2.46,6.75-4.99,10.31-7.6,3.57-2.6,6.22-4.5,7.96-5.7,1.74-1.2,3.19-2.11,4.35-2.75,1.6-.85,3.2-1.77,4.81-2.76,1.61-.99,2.88-1.76,3.81-2.33.93-.57,1.75-1.01,2.48-1.31s1.39-.46,2-.46c.75,0,1.7.61,2.85,1.83,1.15,1.22,1.72,2,1.72,2.35,0,.43-.34.94-1.02,1.53s-2.1,1.69-4.24,3.29c-3.95,2.97-7.37,5.96-10.27,8.98-2.9,3.02-5.1,5.78-6.59,8.27-1.49,2.49-2.24,4.46-2.24,5.9,0,.9.24,1.55.72,1.95s1.23.61,2.24.61c.93,0,1.79-.12,2.59-.37.8-.24,1.68-.59,2.66-1.04.97-.45,1.89-.87,2.76-1.28,1.22-.51,2.42-1.05,3.59-1.63,1.17-.58,2.09-1.04,2.74-1.37.65-.34,1.14-.57,1.46-.72Z"/>
  <path class="cls-1" d="M102.66,20.04l-2.22,1.83c2.58.16,4.89.38,6.92.66,2.03.27,3.91.58,5.63.92,1.73.34,3.24.69,4.55,1.05,4.58,1.34,6.88,3.21,6.88,5.61,0,1.46-.96,2.9-2.87,4.3-1.92,1.4-4.4,2.65-7.46,3.75s-6.21,1.96-9.44,2.58c-3.24.62-6.17.93-8.81.93-4.41,0-7.85-.58-10.31-1.72-2.47-1.15-3.7-2.72-3.7-4.71,0-1.38.75-3.01,2.26-4.88,1.51-1.87,3.84-4.2,7.01-6.99-2.38-.08-4.06-.33-5.05-.75-.99-.42-1.48-1-1.48-1.75,0-.47.19-.82.57-1.07.38-.24.88-.42,1.52-.53.64-.11,1.86-.25,3.68-.41,1.81-.16,4.14-.37,6.98-.61,3.16-2.73,6-4.77,8.51-6.15,2.51-1.37,5.2-2.16,8.07-2.36.23-.02.49-.03.76-.03s.41.05.41.15c0,.12-.33.45-.98.98-.65.53-1.71,1.37-3.18,2.53s-3.2,2.53-5.2,4.12c5.45-.51,9.92-1.09,13.38-1.75,3.47-.66,6.08-1.45,7.85-2.36s2.66-1.93,2.66-3.05c0-1.36-.94-2.35-2.83-2.96-1.89-.61-4.77-.92-8.66-.92-2.15,0-4.61.15-7.38.46-2.77.31-5.28.65-7.53,1.04-2.25.39-4.25.8-6,1.24-1.76.44-2.63.76-2.63.96,0,.06.09.12.26.18,1.42.37,2.13.67,2.13.92,0,.33-2.18.95-6.53,1.88-4.35.93-7.28,1.39-8.79,1.39-1.07,0-1.61-.38-1.61-1.13,0-.89,1.17-2.51,3.5-4.83s4.46-3.82,6.38-4.47c.67-.22,2.22-.58,4.66-1.07,2.44-.49,5.11-.96,8.03-1.4,2.92-.45,5.88-.82,8.9-1.13,3.02-.31,5.69-.46,8.01-.46,5.48,0,9.6.69,12.36,2.06,2.76,1.37,4.13,3.1,4.13,5.17,0,1.4-.63,2.76-1.89,4.06-1.26,1.3-3.23,2.53-5.9,3.69-2.67,1.16-6.14,2.18-10.42,3.05s-9.32,1.55-15.12,2.01ZM98.04,23.98c-1.51,1.26-2.85,2.38-4.03,3.34-1.18.97-2.02,1.75-2.52,2.35-.51.6-.76,1.21-.76,1.81,0,.98.72,1.85,2.15,2.61,1.44.76,3.5,1.14,6.2,1.14,2.5,0,5.16-.31,7.99-.93,2.83-.62,5.21-1.43,7.14-2.43,1.93-1,2.89-2,2.89-3.02,0-.87-.71-1.6-2.13-2.17-1.42-.57-3.58-1.07-6.48-1.51-2.9-.44-6.38-.84-10.44-1.21Z"/>
</svg>