<?xml version="1.0" standalone="no"?>
<!DOCTYPE svg PUBLIC "-//W3C//DTD SVG 20010904//EN"
 "http://www.w3.org/TR/2001/REC-SVG-20010904/DTD/svg10.dtd">
<svg version="1.0" xmlns="http://www.w3.org/2000/svg"
 width="2176.000000pt" height="2176.000000pt" viewBox="0 0 2176.000000 2176.000000"
 preserveAspectRatio="xMidYMid meet">
<metadata>
Created by potrace 1.14, written by Peter Selinger 2001-2017
</metadata>
<g transform="translate(0.000000,2176.000000) scale(0.100000,-0.100000)"
fill="#000000" stroke="none">
<path d="M18805 14302 c-1 -2 -56 -5 -121 -8 -66 -2 -150 -6 -189 -9 -38 -3
-108 -7 -155 -10 -47 -3 -107 -7 -135 -10 -27 -2 -79 -7 -115 -10 -36 -3 -87
-8 -115 -10 -27 -3 -72 -7 -100 -10 -46 -4 -78 -7 -200 -21 -27 -4 -66 -8 -85
-9 -82 -8 -147 -15 -170 -20 -14 -2 -56 -7 -94 -11 -38 -3 -80 -10 -93 -15
-18 -6 -22 -6 -17 3 4 6 3 9 -2 5 -9 -5 -41 -11 -124 -21 -19 -3 -53 -8 -75
-11 -53 -7 -83 -11 -235 -31 -14 -2 -41 -5 -60 -8 -19 -3 -55 -8 -80 -12 -25
-3 -54 -8 -65 -9 -11 -2 -38 -6 -60 -9 -22 -3 -49 -8 -60 -10 -11 -2 -42 -7
-70 -10 -27 -4 -77 -12 -110 -18 -33 -6 -69 -12 -80 -13 -82 -11 -127 -19
-255 -40 -19 -4 -46 -8 -60 -10 -14 -2 -36 -6 -50 -9 -24 -5 -110 -20 -175
-31 -75 -13 -252 -46 -275 -50 -14 -3 -36 -7 -50 -10 -42 -8 -74 -15 -100 -20
-14 -3 -40 -8 -59 -11 -18 -3 -43 -8 -55 -10 -11 -3 -32 -7 -46 -10 -14 -2
-38 -7 -55 -11 -16 -4 -34 -8 -40 -9 -5 -1 -35 -7 -65 -13 -30 -6 -64 -13 -75
-15 -160 -33 -431 -101 -480 -122 -22 -9 -51 -21 -65 -27 -14 -6 -27 -11 -30
-11 -37 -8 -331 -180 -338 -198 -2 -4 -10 -8 -18 -8 -8 0 -14 -4 -14 -10 0 -5
-5 -10 -11 -10 -6 0 -17 -6 -24 -12 -20 -18 -34 -29 -80 -63 -22 -17 -49 -38
-60 -49 -11 -10 -35 -30 -54 -45 -19 -14 -60 -49 -90 -78 -31 -28 -57 -51 -58
-50 -1 2 11 28 27 60 15 31 27 64 25 74 -2 10 -4 23 -4 30 -1 12 -101 164
-124 188 -7 7 -46 50 -87 95 -41 46 -84 93 -96 104 -195 193 -312 259 -451
255 -40 -1 -76 -6 -79 -11 -3 -4 -9 -6 -14 -3 -5 3 -30 -2 -57 -10 -116 -37
-149 -48 -158 -56 -5 -5 -17 -9 -26 -9 -10 0 -19 -3 -21 -7 -2 -5 -25 -18 -53
-31 -27 -13 -86 -44 -130 -68 -95 -53 -100 -56 -341 -204 -77 -47 -151 -91
-166 -99 -16 -7 -28 -17 -28 -21 0 -5 -12 -13 -27 -19 -16 -6 -59 -31 -98 -56
-38 -25 -78 -48 -87 -51 -10 -4 -18 -10 -18 -15 0 -5 -4 -9 -10 -9 -5 0 -56
-28 -112 -63 -57 -35 -110 -67 -118 -70 -8 -4 -32 -17 -52 -30 -67 -39 -309
-177 -312 -177 -2 0 -47 -25 -101 -55 -53 -30 -98 -55 -101 -55 -2 0 -28 -16
-58 -35 -30 -19 -59 -35 -63 -35 -5 0 -18 -7 -28 -15 -38 -30 -206 -135 -216
-135 -5 0 -9 -4 -9 -10 0 -5 -4 -10 -8 -10 -10 0 -365 -238 -407 -273 -5 -4
-82 -58 -170 -120 -174 -122 -244 -172 -260 -185 -5 -4 -32 -23 -60 -42 -27
-19 -54 -39 -60 -43 -18 -15 -339 -247 -372 -270 -45 -31 -272 -196 -308 -224
-57 -44 -70 -54 -190 -140 -66 -48 -121 -91 -123 -95 -2 -5 -10 -8 -18 -8 -8
0 -14 -3 -14 -7 0 -5 -17 -19 -38 -33 -20 -14 -71 -50 -112 -80 -130 -97 -244
-181 -269 -198 -12 -9 -63 -47 -112 -84 -49 -38 -93 -68 -98 -68 -5 0 -11 -4
-13 -8 -1 -5 -28 -26 -58 -48 -30 -21 -62 -44 -70 -51 -8 -7 -94 -71 -190
-142 -96 -71 -180 -134 -186 -139 -5 -5 -21 -15 -35 -22 -22 -12 -22 -10 6 20
17 18 37 41 45 51 8 10 26 31 40 46 14 15 41 48 60 73 19 24 42 52 50 61 19
20 41 46 165 194 55 66 104 125 110 131 5 6 26 30 45 54 19 24 44 54 55 67 11
12 34 39 50 59 17 20 35 41 40 48 6 6 46 54 89 106 43 52 88 106 100 120 12
14 39 48 61 75 22 28 45 55 51 60 6 6 30 35 55 65 24 30 46 57 49 60 3 3 17
21 32 40 15 19 37 47 50 61 13 15 48 57 78 95 30 37 65 78 77 91 12 13 20 23
16 23 -3 0 10 17 28 38 76 86 380 474 449 572 14 19 30 42 37 50 39 48 173
238 173 245 -1 3 6 13 15 21 21 22 85 122 85 134 0 6 3 10 8 10 4 0 18 20 32
45 14 25 29 45 34 45 5 0 7 3 4 6 -4 3 4 21 16 39 39 57 125 240 133 281 10
57 5 199 -7 199 -1 0 -3 8 -5 19 -2 10 -8 23 -14 29 -6 6 -11 19 -11 28 0 9
-7 22 -15 29 -9 7 -13 15 -11 17 7 7 -61 93 -113 143 -65 64 -111 101 -111 93
0 -5 -4 -3 -8 2 -11 15 -88 55 -106 55 -9 0 -16 4 -16 9 0 5 -19 12 -42 16
-24 5 -52 10 -63 12 -52 10 -166 4 -225 -12 -36 -9 -72 -18 -80 -20 -44 -9
-320 -114 -334 -127 -6 -4 -15 -8 -22 -8 -6 0 -29 -8 -50 -17 -22 -9 -41 -17
-44 -18 -3 -1 -36 -16 -75 -34 -38 -18 -70 -32 -70 -31 0 1 -73 -35 -163 -79
-89 -45 -167 -81 -171 -81 -5 0 -11 -3 -13 -7 -1 -5 -30 -21 -63 -38 -33 -16
-63 -34 -67 -40 -4 -5 -8 -7 -8 -2 0 4 -18 -4 -40 -18 -22 -14 -42 -25 -44
-25 -18 0 -560 -323 -684 -407 -34 -24 -67 -43 -72 -43 -6 0 -10 -4 -10 -8 0
-5 -10 -14 -22 -21 -58 -29 -412 -285 -514 -370 -17 -14 -45 -37 -63 -51 -17
-14 -37 -30 -44 -35 -78 -65 -139 -114 -167 -135 -18 -14 -41 -32 -50 -40 -26
-22 -46 -37 -135 -110 -225 -181 -675 -552 -711 -585 -6 -5 -33 -28 -60 -50
-72 -60 -307 -261 -328 -280 -38 -34 -109 -96 -152 -132 -28 -23 -64 -55 -80
-70 -17 -15 -63 -57 -104 -93 -40 -36 -86 -77 -102 -92 -16 -16 -31 -28 -34
-28 -6 0 31 64 59 101 9 13 46 67 82 119 36 52 71 103 77 113 7 10 61 88 120
175 59 86 110 162 115 167 5 6 35 51 68 100 33 50 62 92 65 95 3 3 28 39 55
80 28 41 53 77 56 80 3 3 23 32 44 65 22 33 43 61 47 63 5 2 8 10 8 17 0 7 3
15 8 17 7 3 35 44 134 198 80 124 92 143 103 162 5 10 39 66 74 125 85 143
153 272 191 363 17 41 35 84 40 95 10 23 30 89 35 113 2 9 4 17 5 17 1 0 3 7
5 15 34 165 26 251 -36 372 -11 21 -16 38 -12 38 5 0 4 4 -2 8 -5 4 -30 48
-55 97 -24 50 -48 92 -52 93 -5 2 -8 10 -8 18 0 8 -4 14 -10 14 -5 0 -10 6
-10 13 0 24 -144 207 -238 304 -57 57 -160 120 -232 140 -33 10 -239 10 -315
1 -77 -10 -215 -32 -265 -42 -54 -12 -76 -17 -110 -22 -19 -3 -39 -8 -43 -11
-4 -2 -20 -6 -36 -8 -15 -2 -76 -16 -136 -30 -59 -15 -115 -28 -124 -30 -9 -1
-36 -8 -61 -15 -25 -7 -52 -14 -60 -15 -8 -2 -15 -4 -15 -5 0 -1 -7 -3 -15 -5
-8 -1 -51 -13 -95 -24 -44 -12 -87 -24 -95 -26 -8 -2 -15 -4 -15 -5 0 -1 -11
-3 -24 -6 -20 -4 -133 -36 -224 -64 -15 -5 -31 -10 -35 -11 -4 -1 -11 -3 -17
-4 -16 -4 -158 -46 -180 -53 -11 -3 -22 -7 -25 -7 -3 -1 -12 -4 -20 -8 -8 -3
-69 -22 -135 -43 -66 -20 -129 -40 -140 -45 -11 -4 -99 -35 -195 -67 -200 -69
-312 -108 -355 -127 -16 -7 -68 -27 -115 -43 -113 -41 -298 -110 -335 -127
-16 -7 -61 -25 -100 -40 -38 -15 -89 -35 -111 -45 -23 -11 -54 -22 -68 -26
-14 -3 -26 -10 -26 -16 0 -5 -4 -7 -8 -4 -4 2 -21 -2 -37 -9 -17 -8 -59 -26
-95 -41 -36 -15 -80 -33 -97 -40 -18 -8 -36 -14 -40 -13 -23 2 34 97 96 160
55 56 380 269 410 269 6 0 11 4 11 9 0 5 15 14 33 21 36 15 87 64 87 85 0 24
-49 29 -104 12 -66 -22 -425 -202 -707 -357 -185 -101 -401 -234 -407 -251 -2
-5 -8 -9 -13 -9 -10 0 -24 -10 -60 -42 -10 -10 -23 -18 -28 -18 -11 0 -149
-140 -164 -167 -7 -12 -22 -40 -34 -61 -12 -22 -19 -43 -16 -46 4 -3 2 -6 -4
-6 -6 0 -14 -12 -18 -27 -3 -16 -12 -41 -20 -58 -23 -53 -51 -141 -81 -250 -4
-16 -11 -42 -44 -170 -76 -299 -84 -397 -35 -460 36 -48 85 -67 180 -70 130
-4 301 28 515 97 52 17 101 31 108 31 6 0 12 3 12 7 0 4 6 7 13 7 16 1 454
167 652 248 11 5 22 9 25 10 3 1 19 8 35 15 17 7 35 14 40 16 6 1 87 35 180
74 94 39 175 73 180 74 6 2 36 15 69 29 32 15 62 27 65 27 4 0 31 11 59 25 29
14 54 25 57 25 6 0 53 20 132 56 17 8 34 14 37 14 3 0 31 12 63 26 32 14 72
32 88 39 17 7 80 34 140 58 149 62 169 70 175 72 3 1 17 7 31 12 14 6 95 39
180 73 85 34 163 65 174 70 11 5 90 36 175 69 202 77 193 74 205 77 6 1 24 8
40 15 17 7 33 13 38 14 4 2 9 4 12 5 3 1 8 3 13 5 4 1 14 4 22 8 71 28 310
102 360 111 14 2 25 5 25 6 0 1 7 3 15 5 8 2 29 6 45 10 77 16 106 19 195 19
108 -1 120 -3 173 -28 91 -44 122 -145 87 -286 -15 -63 -14 -59 -34 -118 -18
-53 -122 -264 -155 -312 -9 -14 -23 -37 -31 -52 -7 -16 -17 -28 -22 -28 -4 0
-8 -5 -8 -10 0 -13 -134 -206 -244 -350 -74 -99 -93 -122 -165 -210 -16 -19
-53 -64 -82 -100 -29 -36 -56 -67 -59 -70 -3 -3 -16 -18 -28 -34 -20 -26 -96
-115 -147 -172 -11 -12 -27 -31 -35 -41 -19 -22 -169 -191 -190 -214 -8 -8
-51 -55 -95 -103 -377 -415 -996 -1038 -1609 -1621 -174 -165 -347 -328 -376
-355 -117 -107 -168 -161 -196 -208 -29 -48 -32 -59 -29 -121 6 -118 40 -222
131 -406 36 -71 78 -150 94 -175 16 -25 33 -52 37 -60 3 -8 9 -17 12 -20 3 -3
22 -25 42 -50 60 -74 83 -96 145 -138 83 -56 136 -72 225 -67 100 6 113 9 199
52 63 30 96 58 205 167 72 72 177 184 235 249 58 66 119 134 135 152 17 18 53
59 80 90 28 32 68 77 90 100 22 23 60 64 84 91 89 99 262 284 504 539 207 217
948 958 1137 1137 271 255 243 229 431 399 14 13 65 60 114 104 48 44 97 88
109 98 11 10 52 46 90 80 108 96 112 99 167 147 28 25 57 50 63 55 6 6 56 48
111 95 55 47 102 87 105 90 3 3 57 48 120 100 63 52 120 99 127 105 7 5 18 15
25 20 92 73 116 92 130 105 22 19 34 29 83 65 22 17 42 33 45 36 3 3 59 46
125 95 66 49 126 94 132 99 75 61 555 385 571 385 6 0 12 4 14 8 8 20 410 237
420 226 3 -2 11 2 18 11 7 8 22 15 35 15 12 0 25 3 29 8 4 4 12 8 17 8 5 1 11
3 14 4 3 1 10 4 15 5 6 1 11 3 13 5 8 6 51 12 111 15 113 6 145 -30 140 -161
-2 -87 -4 -94 -23 -144 -46 -121 -134 -266 -258 -424 -35 -45 -84 -108 -110
-141 -26 -33 -52 -64 -58 -70 -6 -5 -24 -28 -40 -50 -17 -22 -32 -42 -35 -45
-4 -4 -168 -199 -230 -273 -8 -10 -24 -29 -35 -41 -11 -12 -45 -51 -75 -86
-30 -35 -62 -71 -70 -80 -8 -9 -44 -50 -80 -90 -36 -41 -72 -82 -80 -91 -8 -8
-64 -69 -125 -134 -183 -198 -592 -603 -1116 -1105 -287 -275 -772 -760 -839
-839 -30 -35 -60 -69 -66 -75 -16 -17 -125 -175 -125 -180 0 -3 -8 -26 -19
-52 -11 -25 -22 -60 -25 -77 -3 -16 -8 -34 -11 -38 -6 -10 -6 -175 0 -204 2
-11 7 -45 11 -75 10 -78 49 -217 81 -290 55 -121 101 -198 151 -250 18 -19 33
-38 33 -42 0 -4 6 -8 14 -8 7 0 19 -7 26 -16 19 -22 73 -42 131 -50 65 -9 151
16 238 68 34 21 65 38 68 38 2 0 10 6 17 13 7 6 30 26 52 42 100 79 240 196
309 260 18 17 66 59 106 95 40 36 87 79 105 96 19 17 64 59 102 92 38 34 82
75 99 90 16 15 62 56 103 92 41 36 86 76 101 90 15 14 51 45 80 70 28 25 61
53 73 63 12 11 45 40 75 65 30 26 69 61 87 77 29 27 84 74 148 128 54 45 132
114 148 130 10 9 20 17 23 17 3 0 17 10 30 23 13 12 42 38 65 57 23 19 47 40
53 45 7 6 57 48 112 93 55 46 109 91 120 100 11 10 45 37 75 62 30 25 61 51
68 58 8 7 30 25 50 40 21 15 39 29 42 33 3 3 68 56 145 118 77 62 149 120 160
129 11 10 40 33 65 52 25 19 52 40 60 47 59 47 230 180 300 233 47 36 92 70
100 77 14 10 246 184 302 225 13 9 48 35 78 57 30 23 64 48 75 57 11 8 41 29
67 46 27 17 48 35 48 40 0 4 7 8 15 8 8 0 15 5 15 10 0 6 5 10 11 10 6 0 16 6
23 13 8 6 39 30 70 52 32 22 69 50 84 62 15 13 33 23 40 23 6 0 12 3 12 8 0 4
18 18 40 32 22 14 40 28 40 32 0 5 5 8 11 8 10 0 29 13 86 60 7 6 24 15 38 22
14 6 25 15 25 20 0 4 7 8 15 8 8 0 15 4 15 8 0 4 15 16 33 27 17 10 34 21 37
24 11 13 251 171 259 171 5 0 11 4 13 8 4 11 206 142 218 142 4 0 10 3 12 8 5
11 66 52 78 52 5 0 10 5 10 12 0 6 3 8 7 5 3 -4 15 0 25 10 10 9 27 21 37 27
27 15 139 82 183 109 31 19 218 126 313 179 16 9 59 32 95 50 36 18 68 37 71
41 3 5 9 9 12 8 4 0 33 11 64 26 85 37 153 57 193 54 38 -3 94 -37 85 -52 -4
-5 -1 -9 4 -9 27 0 5 -37 -66 -108 -78 -77 -195 -183 -236 -211 -12 -9 -38
-30 -57 -48 -29 -26 -335 -276 -464 -378 -21 -16 -50 -41 -65 -55 -15 -14 -45
-39 -67 -57 -21 -17 -49 -39 -60 -50 -12 -10 -43 -36 -69 -58 -26 -22 -57 -48
-69 -59 -11 -10 -43 -37 -70 -60 -27 -22 -63 -54 -81 -71 -18 -16 -59 -52 -91
-80 -32 -27 -72 -63 -90 -80 -17 -16 -64 -59 -104 -94 -147 -132 -381 -361
-520 -511 -58 -62 -112 -120 -120 -129 -8 -9 -46 -55 -85 -101 -38 -47 -74
-90 -80 -96 -5 -6 -17 -22 -25 -34 -8 -12 -20 -28 -25 -34 -18 -20 -111 -150
-123 -173 -7 -12 -18 -28 -26 -35 -8 -8 -50 -75 -93 -150 -66 -113 -108 -201
-183 -383 -10 -23 -33 -95 -36 -110 -1 -5 -7 -30 -14 -55 -15 -56 -20 -77 -25
-115 -3 -16 -7 -41 -10 -55 -16 -80 -23 -308 -12 -387 20 -137 61 -244 135
-358 71 -108 202 -231 317 -296 75 -42 145 -77 145 -72 0 3 6 1 13 -5 20 -17
168 -59 267 -77 142 -26 402 -26 530 0 34 6 133 27 145 30 6 1 17 4 25 8 17 6
140 39 155 41 6 1 15 4 20 7 6 3 44 16 85 30 41 13 77 27 78 32 2 4 11 7 20 7
10 0 47 13 84 29 37 16 69 26 72 23 4 -3 6 0 6 6 0 7 5 12 11 12 17 0 286 116
381 166 27 13 50 24 53 24 3 0 42 19 88 42 45 23 84 42 87 42 12 2 105 52 108
59 2 4 11 7 21 7 9 0 21 4 27 9 5 4 54 32 109 61 134 71 191 102 343 187 38
21 181 104 262 153 124 73 373 229 492 306 37 24 72 44 77 44 5 0 11 3 13 8 2
4 35 27 73 52 39 25 72 48 73 52 2 5 8 8 13 8 12 0 147 88 156 103 4 6 8 85 9
174 1 170 0 174 -43 140 -7 -5 -13 -6 -13 -1 0 5 -4 5 -8 -1 -6 -9 -459 -239
-472 -240 -3 -1 -14 -6 -25 -12 -74 -41 -120 -63 -131 -63 -8 0 -14 -4 -14 -9
0 -5 -10 -12 -22 -16 -13 -4 -25 -8 -28 -9 -3 -1 -41 -19 -85 -40 -187 -89
-223 -105 -274 -126 -51 -20 -274 -121 -466 -210 -181 -85 -215 -100 -240
-106 -14 -3 -25 -10 -25 -15 0 -5 -3 -8 -7 -7 -8 2 -77 -22 -138 -47 -94 -39
-257 -80 -365 -91 -169 -17 -336 -6 -417 28 -15 6 -31 12 -35 12 -4 1 -13 7
-20 14 -6 6 -17 12 -24 12 -7 0 -32 22 -56 49 -60 67 -91 161 -90 280 1 81 3
103 17 176 8 44 56 208 64 220 4 6 13 28 20 50 13 39 64 156 81 185 4 8 28 53
52 100 23 47 45 87 48 90 3 3 16 25 29 50 13 25 30 52 37 61 8 8 14 21 14 27
0 6 6 17 14 24 7 8 22 29 32 47 31 55 132 210 144 221 3 3 38 50 77 105 40 55
106 143 147 195 42 52 86 108 99 124 12 15 27 33 33 40 11 11 131 151 149 173
11 14 22 27 160 178 303 332 625 644 1005 975 153 133 162 140 166 140 3 0 15
10 28 23 13 12 43 38 66 56 23 19 48 41 56 48 7 7 17 13 23 13 6 0 11 3 11 8
0 4 43 41 96 82 53 41 104 82 113 90 9 8 44 35 76 60 33 24 65 48 70 53 6 4
102 77 215 162 113 85 215 163 227 174 12 10 46 36 75 57 49 35 146 112 158
124 3 3 25 21 50 40 55 42 46 31 -67 -86 -90 -94 -163 -175 -228 -254 -20 -25
-42 -52 -49 -61 -31 -37 -96 -139 -96 -148 0 -6 -4 -11 -9 -11 -9 0 -44 -83
-59 -140 -15 -58 0 -119 38 -162 17 -19 79 -47 120 -55 54 -10 221 -5 355 11
17 2 55 6 86 10 31 4 67 9 80 11 13 3 44 8 69 11 25 3 54 7 65 9 59 10 100 17
119 22 11 2 32 6 46 7 14 2 39 6 55 9 40 9 95 19 122 22 11 2 31 6 43 10 12 4
32 8 43 10 12 1 47 7 77 13 30 6 67 14 83 17 57 11 85 17 192 40 61 13 121 26
135 29 14 2 48 10 75 16 28 6 61 14 75 16 14 3 41 9 60 14 19 5 46 11 60 14
41 8 63 13 110 26 25 7 56 14 70 17 14 3 30 6 35 7 6 2 24 6 40 10 166 41 358
102 408 129 79 44 22 89 -193 153 -135 40 -163 58 -129 82 21 15 170 71 206
78 12 2 33 8 45 13 13 5 26 9 31 10 4 0 8 1 10 2 1 0 9 2 17 4 8 2 60 16 115
30 97 24 115 29 171 40 14 3 54 12 88 20 33 8 72 16 86 19 14 3 36 7 50 11 21
4 67 13 215 41 11 2 31 6 45 9 14 3 34 7 45 9 11 2 61 12 110 21 50 10 104 19
121 20 17 1 39 5 50 8 10 3 37 9 59 12 23 3 52 7 65 10 13 3 42 7 65 10 22 4
81 12 130 20 50 8 110 17 135 20 25 3 56 8 70 10 14 2 49 7 79 10 30 4 62 8
72 10 10 2 44 6 76 10 33 3 70 7 84 10 23 4 109 14 174 20 17 2 50 6 75 10 41
5 99 12 190 20 19 2 58 6 85 9 135 15 319 29 402 30 35 1 63 3 63 6 0 14 760
19 985 7 164 -9 250 -15 315 -23 30 -3 66 -7 80 -9 71 -8 128 -16 150 -20 14
-3 41 -7 60 -10 19 -3 42 -8 50 -10 8 -2 31 -6 51 -9 20 -3 48 -10 63 -16 15
-5 30 -9 34 -8 4 1 14 -1 22 -4 8 -3 35 -11 60 -18 58 -15 240 -91 240 -99 0
-3 13 -12 30 -19 42 -19 132 -109 162 -162 72 -127 71 -270 -3 -395 -45 -75
-178 -193 -281 -248 -24 -13 -54 -30 -68 -39 -26 -17 -273 -126 -300 -133 -3
0 -61 -19 -130 -42 -142 -47 -247 -78 -335 -98 -5 -2 -39 -11 -75 -20 -36 -9
-72 -18 -80 -20 -8 -2 -49 -11 -90 -20 -41 -9 -90 -18 -108 -20 -18 -2 -37 -7
-43 -10 -6 -4 -25 -9 -42 -11 -18 -3 -55 -9 -83 -15 -28 -5 -64 -12 -80 -15
-16 -2 -40 -7 -54 -9 -14 -3 -36 -8 -50 -10 -14 -3 -41 -7 -60 -10 -19 -3 -46
-7 -60 -10 -30 -6 -71 -12 -125 -20 -75 -11 -100 -15 -120 -19 -11 -2 -41 -6
-66 -10 -25 -4 -57 -9 -70 -11 -13 -2 -49 -6 -79 -9 -30 -3 -64 -7 -75 -10
-11 -2 -47 -7 -80 -11 -32 -4 -67 -8 -76 -10 -16 -3 -70 -10 -159 -20 -25 -3
-61 -7 -80 -10 -19 -2 -60 -7 -90 -10 -30 -3 -68 -8 -85 -10 -36 -5 -111 -13
-185 -20 -30 -3 -73 -8 -95 -10 -38 -5 -105 -12 -190 -20 -22 -2 -69 -7 -105
-10 -78 -8 -140 -13 -140 -11 0 1 24 20 53 41 28 22 54 42 57 46 4 5 256 206
349 278 18 14 113 89 210 166 97 77 193 152 213 167 20 15 42 33 50 40 7 7 42
35 78 62 36 27 72 57 81 65 9 9 29 25 43 35 15 11 36 27 46 35 32 28 53 45
125 101 39 30 99 83 134 118 63 63 64 65 42 76 -27 15 -244 9 -340 -9 -9 -1
-43 -6 -76 -10 -32 -3 -62 -8 -65 -10 -3 -1 -25 -6 -50 -9 -25 -4 -99 -20
-165 -36 -66 -17 -128 -32 -138 -35 -21 -5 -226 -73 -247 -82 -8 -3 -17 -7
-20 -8 -3 -1 -22 -9 -44 -18 -21 -9 -40 -17 -42 -17 -4 0 -251 -121 -299 -147
-16 -9 -70 -40 -118 -69 -49 -30 -90 -54 -92 -54 -3 0 -130 -82 -150 -97 -6
-5 -44 -30 -85 -57 -41 -27 -76 -53 -78 -58 -2 -4 -8 -8 -13 -8 -9 0 -102 -65
-136 -94 -33 -29 -43 -36 -48 -36 -4 0 -107 -77 -152 -115 -7 -5 -18 -14 -25
-20 -44 -34 -215 -171 -224 -180 -7 -5 -29 -23 -49 -40 -21 -16 -43 -35 -49
-40 -118 -108 -115 -107 -296 -120 -41 -4 -91 -8 -110 -10 -19 -3 -68 -7 -108
-10 -41 -3 -95 -7 -120 -10 -26 -2 -76 -7 -112 -10 -36 -3 -89 -8 -117 -10
-29 -3 -79 -7 -110 -10 -32 -3 -81 -7 -109 -10 -53 -5 -134 -12 -239 -20 -33
-3 -78 -7 -100 -10 -22 -2 -65 -7 -95 -10 -30 -3 -73 -8 -95 -10 -22 -3 -57
-7 -77 -10 -21 -2 -53 -6 -70 -9 -18 -3 -51 -8 -73 -11 -73 -10 -199 -56 -245
-89 -60 -44 -88 -101 -85 -174 5 -146 116 -243 351 -311 38 -12 90 -23 114
-26 23 -3 46 -7 49 -9 3 -2 31 -7 61 -10 30 -4 69 -8 87 -11 55 -7 254 -21
353 -25 27 -1 25 -4 -151 -160 -285 -255 -621 -586 -804 -796 -33 -37 -68 -76
-77 -86 -10 -10 -18 -21 -18 -24 0 -3 -12 -19 -27 -34 -33 -35 -38 -41 -85
-105 -165 -228 -261 -428 -284 -590 -4 -27 -7 -86 -6 -130 1 -71 5 -97 25
-180 3 -11 14 -40 25 -65 113 -261 420 -475 868 -605 49 -14 98 -28 109 -30
11 -2 20 -4 20 -5 0 -1 9 -3 20 -5 19 -4 84 -17 95 -20 5 -1 45 -9 100 -20 14
-3 43 -7 65 -10 22 -3 53 -8 68 -11 15 -3 47 -7 70 -10 23 -2 60 -6 82 -9 113
-14 296 -26 443 -29 73 -2 135 -6 139 -9 3 -4 13 -3 22 2 9 5 25 7 36 4 21 -4
86 -6 95 -3 3 1 68 3 145 5 77 2 174 6 215 9 122 10 192 16 235 21 22 3 65 7
95 10 30 3 73 8 95 11 22 4 51 8 65 10 93 10 146 18 200 29 22 4 47 8 127 20
15 2 39 6 53 9 33 8 134 26 168 31 15 2 37 7 50 10 53 13 68 16 92 20 14 2 34
6 45 9 11 2 54 12 95 21 104 23 105 23 105 25 0 1 9 3 20 4 35 5 338 84 383
100 23 8 46 16 50 16 28 2 250 69 372 112 47 16 92 31 100 33 8 2 15 4 15 5 0
1 11 3 24 6 14 2 29 8 35 12 6 5 31 14 56 22 25 7 49 17 54 22 6 4 16 8 24 8
13 0 268 100 359 141 26 12 73 33 103 47 76 34 272 131 285 141 5 4 41 25 80
46 38 21 108 63 155 94 47 31 89 58 95 60 10 4 113 83 170 129 186 151 311
328 349 492 14 58 14 218 1 255 -30 86 -77 184 -97 202 -10 9 -18 21 -18 26 0
21 -160 165 -242 218 -114 74 -114 74 -193 113 -198 96 -400 170 -600 220 -60
16 -117 31 -125 34 -8 3 -23 7 -34 9 -10 2 -55 12 -100 23 -44 11 -92 21 -106
24 -14 2 -32 7 -40 10 -8 3 -28 7 -45 10 -16 3 -41 7 -55 10 -14 3 -59 13
-100 21 -41 8 -86 18 -100 20 -14 3 -38 8 -55 10 -27 4 -83 14 -160 29 -16 3
-43 8 -60 11 -16 3 -54 10 -83 15 -29 5 -56 9 -60 9 -4 -1 -9 0 -12 1 -10 3
-45 9 -95 15 -27 3 -57 8 -65 10 -8 2 -37 7 -65 10 -27 4 -61 8 -75 11 -31 5
-105 14 -145 19 -16 2 -30 4 -30 5 0 1 -16 3 -35 4 -19 2 -48 6 -65 9 -16 3
-61 8 -100 12 -38 4 -83 9 -100 11 -16 2 -59 6 -95 10 -36 3 -81 7 -100 9 -83
9 -150 15 -225 20 -173 13 -202 16 -263 20 -35 2 -66 6 -68 8 -3 3 14 20 38
38 24 18 45 36 48 39 3 3 46 39 95 79 50 41 92 78 93 82 2 5 8 9 13 9 6 0 19
9 31 20 13 12 37 20 57 21 20 1 47 2 61 4 14 1 63 5 110 9 47 4 99 9 115 11
17 2 66 7 110 11 44 3 91 7 105 9 14 1 57 5 95 9 73 7 113 12 180 21 22 3 63
7 90 10 93 9 160 17 190 21 17 3 48 7 69 9 35 4 141 18 231 31 17 3 46 6 65 9
30 3 338 50 395 60 11 2 40 6 65 10 38 5 64 10 100 20 3 0 30 5 60 9 30 4 62
9 70 11 70 14 145 28 160 30 17 2 94 19 360 77 102 23 193 42 203 42 9 0 17 3
17 6 0 3 12 7 26 8 14 1 31 5 37 9 6 4 21 8 32 9 12 1 41 8 66 15 24 7 49 14
54 15 6 0 17 4 25 7 8 3 26 7 40 10 42 8 399 116 490 149 47 16 90 31 95 32 6
1 15 4 20 7 6 4 28 12 50 19 46 14 320 126 350 143 11 6 22 11 25 12 13 1 249
121 326 165 47 28 88 50 90 50 3 0 10 5 17 11 7 5 48 33 92 62 44 28 85 56 92
62 7 5 18 15 25 20 118 92 236 207 302 295 22 30 44 57 49 58 4 2 7 8 7 12 0
5 14 33 31 61 39 67 75 157 94 239 20 86 14 286 -10 350 -9 25 -18 52 -20 61
-6 29 -61 124 -106 184 -47 64 -152 168 -209 209 -65 47 -210 136 -220 136 -5
0 -10 5 -10 12 0 6 -3 8 -7 5 -3 -4 -13 -1 -22 6 -15 12 -140 70 -186 87 -11
4 -31 12 -45 19 -30 13 -208 71 -230 74 -8 1 -19 5 -25 8 -5 4 -28 10 -50 14
-22 5 -47 10 -55 12 -8 2 -27 5 -42 7 -15 3 -31 7 -36 10 -5 3 -24 8 -43 11
-19 3 -56 9 -84 14 -27 5 -68 12 -90 16 -22 3 -51 8 -65 11 -14 2 -45 6 -70 9
-25 3 -58 8 -75 10 -70 9 -150 17 -315 30 -180 15 -914 28 -925 17z m-3015
-3837 c41 -3 91 -8 110 -10 19 -3 64 -7 100 -9 36 -3 81 -7 100 -10 19 -3 58
-8 85 -10 103 -10 227 -23 305 -32 25 -3 61 -7 80 -9 78 -8 146 -16 170 -20
14 -2 48 -6 75 -10 28 -3 66 -8 85 -10 19 -2 60 -7 90 -11 30 -3 64 -8 75 -10
26 -5 103 -16 135 -19 14 -2 25 -4 25 -5 0 -1 18 -3 40 -5 22 -2 54 -6 70 -9
17 -4 50 -9 75 -12 25 -3 54 -8 65 -11 11 -3 31 -7 45 -9 29 -2 88 -13 110
-19 8 -2 35 -7 58 -10 37 -5 236 -46 295 -61 9 -2 26 -6 37 -8 40 -9 215 -57
230 -63 8 -3 18 -7 23 -8 4 -2 8 -3 10 -5 1 -1 9 -3 17 -5 61 -15 215 -86 273
-126 48 -33 117 -101 117 -116 0 -7 4 -13 8 -13 16 0 39 -87 37 -140 -4 -110
-98 -241 -245 -340 -12 -8 -28 -21 -36 -27 -7 -7 -16 -13 -19 -13 -4 0 -19 -8
-33 -19 -35 -24 -264 -142 -322 -165 -25 -10 -56 -23 -70 -29 -14 -6 -27 -11
-30 -12 -3 0 -15 -6 -26 -13 -12 -6 -24 -8 -28 -5 -3 3 -6 0 -6 -7 0 -7 -3
-11 -6 -7 -4 3 -23 -1 -43 -9 -86 -37 -409 -138 -510 -160 -14 -3 -79 -18
-145 -34 -104 -24 -269 -59 -356 -74 -14 -3 -27 -5 -30 -6 -3 -2 -8 -2 -13 -1
-4 1 -26 -3 -50 -8 -23 -5 -67 -12 -97 -16 -30 -3 -68 -9 -85 -11 -49 -9 -86
-14 -155 -19 -36 -4 -77 -8 -91 -10 -67 -12 -246 -18 -469 -18 -311 0 -443 9
-600 43 -25 6 -56 12 -70 14 -14 3 -25 5 -25 6 0 2 -33 10 -60 15 -11 2 -54
15 -95 30 -218 79 -402 214 -463 339 -98 201 -14 381 312 664 36 31 78 69 93
84 16 14 28 23 28 20 0 -4 4 -2 8 3 8 11 53 50 122 105 24 19 48 40 54 45 6 6
34 28 61 50 28 21 52 42 55 45 3 3 32 28 65 55 33 28 69 58 80 67 11 9 54 44
95 78 41 34 86 72 100 84 37 32 73 55 80 51 3 -2 39 -6 80 -10z"/>
</g>
</svg>
